<?xml version="1.0" encoding="UTF-8"?>
<svg xmlns="http://www.w3.org/2000/svg" viewBox="0 0 1598 360" width="1598" height="360" role="img" aria-label="Benchmark timings (log scale)" font-family="-apple-system,Segoe UI,Helvetica,Arial,sans-serif" font-size="11"><rect x="0" y="0" width="1598" height="360" fill="#ffffff"/><text x="799.0" y="22" text-anchor="middle" font-size="14" font-weight="600" fill="#222">Benchmark wall-clock time per implementation (min of 1 runs, log scale, lower is better)</text><rect x="60" y="27" width="12" height="12" fill="#d9534f" rx="2"/><text x="78" y="37" fill="#333">Cangjie</text><rect x="170" y="27" width="12" height="12" fill="#5cb85c" rx="2"/><text x="188" y="37" fill="#333">C++</text><rect x="280" y="27" width="12" height="12" fill="#b7410e" rx="2"/><text x="298" y="37" fill="#333">Rust</text><rect x="390" y="27" width="12" height="12" fill="#00add8" rx="2"/><text x="408" y="37" fill="#333">Go</text><rect x="500" y="27" width="12" height="12" fill="#5bc0de" rx="2"/><text x="518" y="37" fill="#333">Python</text><line x1="60" y1="290.0" x2="1578" y2="290.0" stroke="#e5e5e5" stroke-width="1"/><text x="54" y="293.0" text-anchor="end" fill="#555">1 ms</text><line x1="60" y1="242.0" x2="1578" y2="242.0" stroke="#e5e5e5" stroke-width="1"/><text x="54" y="245.0" text-anchor="end" fill="#555">10 ms</text><line x1="60" y1="194.0" x2="1578" y2="194.0" stroke="#e5e5e5" stroke-width="1"/><text x="54" y="197.0" text-anchor="end" fill="#555">100 ms</text><line x1="60" y1="146.0" x2="1578" y2="146.0" stroke="#e5e5e5" stroke-width="1"/><text x="54" y="149.0" text-anchor="end" fill="#555">1 s</text><line x1="60" y1="98.0" x2="1578" y2="98.0" stroke="#e5e5e5" stroke-width="1"/><text x="54" y="101.0" text-anchor="end" fill="#555">10 s</text><line x1="60" y1="50.0" x2="1578" y2="50.0" stroke="#e5e5e5" stroke-width="1"/><text x="54" y="53.0" text-anchor="end" fill="#555">100 s</text><line x1="60" y1="50" x2="60" y2="290" stroke="#888" stroke-width="1"/><line x1="60" y1="290" x2="1578" y2="290" stroke="#888" stroke-width="1"/><rect x="60.0" y="287" width="14" height="3" fill="#cccccc" rx="1"><title>Cangjie fibonacci: missing</title></rect><rect x="76.0" y="259.4" width="14" height="30.6" fill="#5cb85c" rx="1"><title>C++ fibonacci: 4.35 ms</title></rect><rect x="92.0" y="250.1" width="14" height="39.9" fill="#b7410e" rx="1"><title>Rust fibonacci: 6.79 ms</title></rect><rect x="108.0" y="237.9" width="14" height="52.1" fill="#00add8" rx="1"><title>Go fibonacci: 12.20 ms</title></rect><rect x="124.0" y="170.6" width="14" height="119.4" fill="#5bc0de" rx="1"><title>Python fibonacci: 307.48 ms</title></rect><text x="99.0" y="298.0" text-anchor="end" fill="#333" transform="rotate(-45 99.0,298.0)">fibonacci</text><rect x="156.0" y="287" width="14" height="3" fill="#cccccc" rx="1"><title>Cangjie sort: missing</title></rect><rect x="172.0" y="187.9" width="14" height="102.1" fill="#5cb85c" rx="1"><title>C++ sort: 133.93 ms</title></rect><rect x="188.0" y="206.0" width="14" height="84.0" fill="#b7410e" rx="1"><title>Rust sort: 56.13 ms</title></rect><rect x="204.0" y="171.2" width="14" height="118.8" fill="#00add8" rx="1"><title>Go sort: 298.02 ms</title></rect><rect x="220.0" y="151.8" width="14" height="138.2" fill="#5bc0de" rx="1"><title>Python sort: 757.66 ms</title></rect><text x="195.0" y="298.0" text-anchor="end" fill="#333" transform="rotate(-45 195.0,298.0)">sort</text><rect x="252.0" y="287" width="14" height="3" fill="#cccccc" rx="1"><title>Cangjie hashmap_ops: missing</title></rect><rect x="268.0" y="192.2" width="14" height="97.8" fill="#5cb85c" rx="1"><title>C++ hashmap_ops: 108.99 ms</title></rect><rect x="284.0" y="187.5" width="14" height="102.5" fill="#b7410e" rx="1"><title>Rust hashmap_ops: 136.74 ms</title></rect><rect x="300.0" y="198.4" width="14" height="91.6" fill="#00add8" rx="1"><title>Go hashmap_ops: 81.06 ms</title></rect><rect x="316.0" y="189.2" width="14" height="100.8" fill="#5bc0de" rx="1"><title>Python hashmap_ops: 125.79 ms</title></rect><text x="291.0" y="298.0" text-anchor="end" fill="#333" transform="rotate(-45 291.0,298.0)">hashmap_ops</text><rect x="348.0" y="287" width="14" height="3" fill="#cccccc" rx="1"><title>Cangjie string_concat: missing</title></rect><rect x="364.0" y="217.0" width="14" height="73.0" fill="#5cb85c" rx="1"><title>C++ string_concat: 33.26 ms</title></rect><rect x="380.0" y="237.2" width="14" height="52.8" fill="#b7410e" rx="1"><title>Rust string_concat: 12.60 ms</title></rect><rect x="396.0" y="232.5" width="14" height="57.5" fill="#00add8" rx="1"><title>Go string_concat: 15.75 ms</title></rect><rect x="412.0" y="201.0" width="14" height="89.0" fill="#5bc0de" rx="1"><title>Python string_concat: 71.31 ms</title></rect><text x="387.0" y="298.0" text-anchor="end" fill="#333" transform="rotate(-45 387.0,298.0)">string_concat</text><rect x="444.0" y="287" width="14" height="3" fill="#cccccc" rx="1"><title>Cangjie closure_sum: missing</title></rect><rect x="460.0" y="242.6" width="14" height="47.4" fill="#5cb85c" rx="1"><title>C++ closure_sum: 9.70 ms</title></rect><rect x="476.0" y="281.2" width="14" height="8.8" fill="#b7410e" rx="1"><title>Rust closure_sum: 1.53 ms</title></rect><rect x="492.0" y="265.8" width="14" height="24.2" fill="#00add8" rx="1"><title>Go closure_sum: 3.19 ms</title></rect><rect x="508.0" y="167.2" width="14" height="122.8" fill="#5bc0de" rx="1"><title>Python closure_sum: 361.54 ms</title></rect><text x="483.0" y="298.0" text-anchor="end" fill="#333" transform="rotate(-45 483.0,298.0)">closure_sum</text><rect x="540.0" y="287" width="14" height="3" fill="#cccccc" rx="1"><title>Cangjie enum_eval: missing</title></rect><rect x="556.0" y="188.9" width="14" height="101.1" fill="#5cb85c" rx="1"><title>C++ enum_eval: 127.52 ms</title></rect><rect x="572.0" y="180.1" width="14" height="109.9" fill="#b7410e" rx="1"><title>Rust enum_eval: 194.80 ms</title></rect><rect x="588.0" y="182.0" width="14" height="108.0" fill="#00add8" rx="1"><title>Go enum_eval: 178.02 ms</title></rect><rect x="604.0" y="111.7" width="14" height="178.3" fill="#5bc0de" rx="1"><title>Python enum_eval: 5.180 s</title></rect><text x="579.0" y="298.0" text-anchor="end" fill="#333" transform="rotate(-45 579.0,298.0)">enum_eval</text><rect x="636.0" y="287" width="14" height="3" fill="#cccccc" rx="1"><title>Cangjie regex_search: missing</title></rect><rect x="652.0" y="198.1" width="14" height="91.9" fill="#5cb85c" rx="1"><title>C++ regex_search: 82.02 ms</title></rect><rect x="668.0" y="272.2" width="14" height="17.8" fill="#b7410e" rx="1"><title>Rust regex_search: 2.35 ms</title></rect><rect x="684.0" y="194.1" width="14" height="95.9" fill="#00add8" rx="1"><title>Go regex_search: 99.51 ms</title></rect><rect x="700.0" y="212.3" width="14" height="77.7" fill="#5bc0de" rx="1"><title>Python regex_search: 41.51 ms</title></rect><text x="675.0" y="298.0" text-anchor="end" fill="#333" transform="rotate(-45 675.0,298.0)">regex_search</text><rect x="732.0" y="287" width="14" height="3" fill="#cccccc" rx="1"><title>Cangjie math_loop: missing</title></rect><rect x="748.0" y="197.0" width="14" height="93.0" fill="#5cb85c" rx="1"><title>C++ math_loop: 86.71 ms</title></rect><rect x="764.0" y="197.4" width="14" height="92.6" fill="#b7410e" rx="1"><title>Rust math_loop: 85.11 ms</title></rect><rect x="780.0" y="186.2" width="14" height="103.8" fill="#00add8" rx="1"><title>Go math_loop: 145.54 ms</title></rect><rect x="796.0" y="146.6" width="14" height="143.4" fill="#5bc0de" rx="1"><title>Python math_loop: 971.15 ms</title></rect><text x="771.0" y="298.0" text-anchor="end" fill="#333" transform="rotate(-45 771.0,298.0)">math_loop</text><rect x="828.0" y="287" width="14" height="3" fill="#cccccc" rx="1"><title>Cangjie prime_sieve: missing</title></rect><rect x="844.0" y="207.4" width="14" height="82.6" fill="#5cb85c" rx="1"><title>C++ prime_sieve: 52.66 ms</title></rect><rect x="860.0" y="204.1" width="14" height="85.9" fill="#b7410e" rx="1"><title>Rust prime_sieve: 61.73 ms</title></rect><rect x="876.0" y="207.1" width="14" height="82.9" fill="#00add8" rx="1"><title>Go prime_sieve: 53.33 ms</title></rect><rect x="892.0" y="124.4" width="14" height="165.6" fill="#5bc0de" rx="1"><title>Python prime_sieve: 2.821 s</title></rect><text x="867.0" y="298.0" text-anchor="end" fill="#333" transform="rotate(-45 867.0,298.0)">prime_sieve</text><rect x="924.0" y="287" width="14" height="3" fill="#cccccc" rx="1"><title>Cangjie quicksort: missing</title></rect><rect x="940.0" y="191.8" width="14" height="98.2" fill="#5cb85c" rx="1"><title>C++ quicksort: 111.32 ms</title></rect><rect x="956.0" y="190.9" width="14" height="99.1" fill="#b7410e" rx="1"><title>Rust quicksort: 115.97 ms</title></rect><rect x="972.0" y="190.1" width="14" height="99.9" fill="#00add8" rx="1"><title>Go quicksort: 120.86 ms</title></rect><rect x="988.0" y="116.5" width="14" height="173.5" fill="#5bc0de" rx="1"><title>Python quicksort: 4.124 s</title></rect><text x="963.0" y="298.0" text-anchor="end" fill="#333" transform="rotate(-45 963.0,298.0)">quicksort</text><rect x="1020.0" y="287" width="14" height="3" fill="#cccccc" rx="1"><title>Cangjie mandelbrot: missing</title></rect><rect x="1036.0" y="196.0" width="14" height="94.0" fill="#5cb85c" rx="1"><title>C++ mandelbrot: 90.71 ms</title></rect><rect x="1052.0" y="195.8" width="14" height="94.2" fill="#b7410e" rx="1"><title>Rust mandelbrot: 91.69 ms</title></rect><rect x="1068.0" y="195.9" width="14" height="94.1" fill="#00add8" rx="1"><title>Go mandelbrot: 91.30 ms</title></rect><rect x="1084.0" y="119.6" width="14" height="170.4" fill="#5bc0de" rx="1"><title>Python mandelbrot: 3.550 s</title></rect><text x="1059.0" y="298.0" text-anchor="end" fill="#333" transform="rotate(-45 1059.0,298.0)">mandelbrot</text><rect x="1116.0" y="287" width="14" height="3" fill="#cccccc" rx="1"><title>Cangjie nbody: missing</title></rect><rect x="1132.0" y="234.5" width="14" height="55.5" fill="#5cb85c" rx="1"><title>C++ nbody: 14.36 ms</title></rect><rect x="1148.0" y="243.1" width="14" height="46.9" fill="#b7410e" rx="1"><title>Rust nbody: 9.51 ms</title></rect><rect x="1164.0" y="233.6" width="14" height="56.4" fill="#00add8" rx="1"><title>Go nbody: 14.94 ms</title></rect><rect x="1180.0" y="142.4" width="14" height="147.6" fill="#5bc0de" rx="1"><title>Python nbody: 1.187 s</title></rect><text x="1155.0" y="298.0" text-anchor="end" fill="#333" transform="rotate(-45 1155.0,298.0)">nbody</text><rect x="1212.0" y="287" width="14" height="3" fill="#cccccc" rx="1"><title>Cangjie binary_trees: missing</title></rect><rect x="1228.0" y="202.3" width="14" height="87.7" fill="#5cb85c" rx="1"><title>C++ binary_trees: 67.01 ms</title></rect><rect x="1244.0" y="202.7" width="14" height="87.3" fill="#b7410e" rx="1"><title>Rust binary_trees: 65.89 ms</title></rect><rect x="1260.0" y="194.9" width="14" height="95.1" fill="#00add8" rx="1"><title>Go binary_trees: 95.61 ms</title></rect><rect x="1276.0" y="149.5" width="14" height="140.5" fill="#5bc0de" rx="1"><title>Python binary_trees: 847.34 ms</title></rect><text x="1251.0" y="298.0" text-anchor="end" fill="#333" transform="rotate(-45 1251.0,298.0)">binary_trees</text><rect x="1308.0" y="287" width="14" height="3" fill="#cccccc" rx="1"><title>Cangjie matrix_multiply: missing</title></rect><rect x="1324.0" y="241.7" width="14" height="48.3" fill="#5cb85c" rx="1"><title>C++ matrix_multiply: 10.16 ms</title></rect><rect x="1340.0" y="259.3" width="14" height="30.7" fill="#b7410e" rx="1"><title>Rust matrix_multiply: 4.36 ms</title></rect><rect x="1356.0" y="241.0" width="14" height="49.0" fill="#00add8" rx="1"><title>Go matrix_multiply: 10.47 ms</title></rect><rect x="1372.0" y="152.6" width="14" height="137.4" fill="#5bc0de" rx="1"><title>Python matrix_multiply: 730.34 ms</title></rect><text x="1347.0" y="298.0" text-anchor="end" fill="#333" transform="rotate(-45 1347.0,298.0)">matrix_multiply</text><rect x="1404.0" y="287" width="14" height="3" fill="#cccccc" rx="1"><title>Cangjie word_count: missing</title></rect><rect x="1420.0" y="221.0" width="14" height="69.0" fill="#5cb85c" rx="1"><title>C++ word_count: 27.35 ms</title></rect><rect x="1436.0" y="222.0" width="14" height="68.0" fill="#b7410e" rx="1"><title>Rust word_count: 26.07 ms</title></rect><rect x="1452.0" y="222.4" width="14" height="67.6" fill="#00add8" rx="1"><title>Go word_count: 25.59 ms</title></rect><rect x="1468.0" y="187.8" width="14" height="102.2" fill="#5bc0de" rx="1"><title>Python word_count: 134.58 ms</title></rect><text x="1443.0" y="298.0" text-anchor="end" fill="#333" transform="rotate(-45 1443.0,298.0)">word_count</text><rect x="1500.0" y="287" width="14" height="3" fill="#cccccc" rx="1"><title>Cangjie spectral_norm: missing</title></rect><rect x="1516.0" y="188.7" width="14" height="101.3" fill="#5cb85c" rx="1"><title>C++ spectral_norm: 128.87 ms</title></rect><rect x="1532.0" y="188.6" width="14" height="101.4" fill="#b7410e" rx="1"><title>Rust spectral_norm: 129.71 ms</title></rect><rect x="1548.0" y="188.6" width="14" height="101.4" fill="#00add8" rx="1"><title>Go spectral_norm: 129.55 ms</title></rect><rect x="1564.0" y="89.1" width="14" height="200.9" fill="#5bc0de" rx="1"><title>Python spectral_norm: 15.334 s</title></rect><text x="1539.0" y="298.0" text-anchor="end" fill="#333" transform="rotate(-45 1539.0,298.0)">spectral_norm</text></svg>