<?xml version="1.0" encoding="UTF-8"?>
<svg xmlns="http://www.w3.org/2000/svg" viewBox="0 0 3134 360" width="3134" height="360" role="img" aria-label="Benchmark timings (log scale)" font-family="-apple-system,Segoe UI,Helvetica,Arial,sans-serif" font-size="11"><rect x="0" y="0" width="3134" height="360" fill="#ffffff"/><text x="1567.0" y="22" text-anchor="middle" font-size="14" font-weight="600" fill="#222">Benchmark wall-clock time per implementation (min of 1 runs, log scale, lower is better)</text><rect x="60" y="27" width="12" height="12" fill="#d9534f" rx="2"/><text x="78" y="37" fill="#333">Cangjie</text><rect x="170" y="27" width="12" height="12" fill="#5cb85c" rx="2"/><text x="188" y="37" fill="#333">C++</text><rect x="280" y="27" width="12" height="12" fill="#b7410e" rx="2"/><text x="298" y="37" fill="#333">Rust</text><rect x="390" y="27" width="12" height="12" fill="#00add8" rx="2"/><text x="408" y="37" fill="#333">Go</text><rect x="500" y="27" width="12" height="12" fill="#5bc0de" rx="2"/><text x="518" y="37" fill="#333">Python</text><line x1="60" y1="290.0" x2="3114" y2="290.0" stroke="#e5e5e5" stroke-width="1"/><text x="54" y="293.0" text-anchor="end" fill="#555">100 µs</text><line x1="60" y1="250.0" x2="3114" y2="250.0" stroke="#e5e5e5" stroke-width="1"/><text x="54" y="253.0" text-anchor="end" fill="#555">1 ms</text><line x1="60" y1="210.0" x2="3114" y2="210.0" stroke="#e5e5e5" stroke-width="1"/><text x="54" y="213.0" text-anchor="end" fill="#555">10 ms</text><line x1="60" y1="170.0" x2="3114" y2="170.0" stroke="#e5e5e5" stroke-width="1"/><text x="54" y="173.0" text-anchor="end" fill="#555">100 ms</text><line x1="60" y1="130.0" x2="3114" y2="130.0" stroke="#e5e5e5" stroke-width="1"/><text x="54" y="133.0" text-anchor="end" fill="#555">1 s</text><line x1="60" y1="90.0" x2="3114" y2="90.0" stroke="#e5e5e5" stroke-width="1"/><text x="54" y="93.0" text-anchor="end" fill="#555">10 s</text><line x1="60" y1="50.0" x2="3114" y2="50.0" stroke="#e5e5e5" stroke-width="1"/><text x="54" y="53.0" text-anchor="end" fill="#555">100 s</text><line x1="60" y1="50" x2="60" y2="290" stroke="#888" stroke-width="1"/><line x1="60" y1="290" x2="3114" y2="290" stroke="#888" stroke-width="1"/><rect x="60.0" y="287" width="14" height="3" fill="#cccccc" rx="1"><title>Cangjie fibonacci: missing</title></rect><rect x="76.0" y="224.5" width="14" height="65.5" fill="#5cb85c" rx="1"><title>C++ fibonacci: 4.35 ms</title></rect><rect x="92.0" y="216.7" width="14" height="73.3" fill="#b7410e" rx="1"><title>Rust fibonacci: 6.79 ms</title></rect><rect x="108.0" y="206.5" width="14" height="83.5" fill="#00add8" rx="1"><title>Go fibonacci: 12.20 ms</title></rect><rect x="124.0" y="150.5" width="14" height="139.5" fill="#5bc0de" rx="1"><title>Python fibonacci: 307.48 ms</title></rect><text x="99.0" y="298.0" text-anchor="end" fill="#333" transform="rotate(-45 99.0,298.0)">fibonacci</text><rect x="156.0" y="287" width="14" height="3" fill="#cccccc" rx="1"><title>Cangjie sort: missing</title></rect><rect x="172.0" y="164.9" width="14" height="125.1" fill="#5cb85c" rx="1"><title>C++ sort: 133.93 ms</title></rect><rect x="188.0" y="180.0" width="14" height="110.0" fill="#b7410e" rx="1"><title>Rust sort: 56.13 ms</title></rect><rect x="204.0" y="151.0" width="14" height="139.0" fill="#00add8" rx="1"><title>Go sort: 298.02 ms</title></rect><rect x="220.0" y="134.8" width="14" height="155.2" fill="#5bc0de" rx="1"><title>Python sort: 757.66 ms</title></rect><text x="195.0" y="298.0" text-anchor="end" fill="#333" transform="rotate(-45 195.0,298.0)">sort</text><rect x="252.0" y="287" width="14" height="3" fill="#cccccc" rx="1"><title>Cangjie hashmap_ops: missing</title></rect><rect x="268.0" y="168.5" width="14" height="121.5" fill="#5cb85c" rx="1"><title>C++ hashmap_ops: 108.99 ms</title></rect><rect x="284.0" y="164.6" width="14" height="125.4" fill="#b7410e" rx="1"><title>Rust hashmap_ops: 136.74 ms</title></rect><rect x="300.0" y="173.6" width="14" height="116.4" fill="#00add8" rx="1"><title>Go hashmap_ops: 81.06 ms</title></rect><rect x="316.0" y="166.0" width="14" height="124.0" fill="#5bc0de" rx="1"><title>Python hashmap_ops: 125.79 ms</title></rect><text x="291.0" y="298.0" text-anchor="end" fill="#333" transform="rotate(-45 291.0,298.0)">hashmap_ops</text><rect x="348.0" y="287" width="14" height="3" fill="#cccccc" rx="1"><title>Cangjie string_concat: missing</title></rect><rect x="364.0" y="189.1" width="14" height="100.9" fill="#5cb85c" rx="1"><title>C++ string_concat: 33.26 ms</title></rect><rect x="380.0" y="206.0" width="14" height="84.0" fill="#b7410e" rx="1"><title>Rust string_concat: 12.60 ms</title></rect><rect x="396.0" y="202.1" width="14" height="87.9" fill="#00add8" rx="1"><title>Go string_concat: 15.75 ms</title></rect><rect x="412.0" y="175.9" width="14" height="114.1" fill="#5bc0de" rx="1"><title>Python string_concat: 71.31 ms</title></rect><text x="387.0" y="298.0" text-anchor="end" fill="#333" transform="rotate(-45 387.0,298.0)">string_concat</text><rect x="444.0" y="287" width="14" height="3" fill="#cccccc" rx="1"><title>Cangjie closure_sum: missing</title></rect><rect x="460.0" y="210.5" width="14" height="79.5" fill="#5cb85c" rx="1"><title>C++ closure_sum: 9.70 ms</title></rect><rect x="476.0" y="242.6" width="14" height="47.4" fill="#b7410e" rx="1"><title>Rust closure_sum: 1.53 ms</title></rect><rect x="492.0" y="229.9" width="14" height="60.1" fill="#00add8" rx="1"><title>Go closure_sum: 3.19 ms</title></rect><rect x="508.0" y="147.7" width="14" height="142.3" fill="#5bc0de" rx="1"><title>Python closure_sum: 361.54 ms</title></rect><text x="483.0" y="298.0" text-anchor="end" fill="#333" transform="rotate(-45 483.0,298.0)">closure_sum</text><rect x="540.0" y="287" width="14" height="3" fill="#cccccc" rx="1"><title>Cangjie enum_eval: missing</title></rect><rect x="556.0" y="165.8" width="14" height="124.2" fill="#5cb85c" rx="1"><title>C++ enum_eval: 127.52 ms</title></rect><rect x="572.0" y="158.4" width="14" height="131.6" fill="#b7410e" rx="1"><title>Rust enum_eval: 194.80 ms</title></rect><rect x="588.0" y="160.0" width="14" height="130.0" fill="#00add8" rx="1"><title>Go enum_eval: 178.02 ms</title></rect><rect x="604.0" y="101.4" width="14" height="188.6" fill="#5bc0de" rx="1"><title>Python enum_eval: 5.180 s</title></rect><text x="579.0" y="298.0" text-anchor="end" fill="#333" transform="rotate(-45 579.0,298.0)">enum_eval</text><rect x="636.0" y="287" width="14" height="3" fill="#cccccc" rx="1"><title>Cangjie regex_search: missing</title></rect><rect x="652.0" y="173.4" width="14" height="116.6" fill="#5cb85c" rx="1"><title>C++ regex_search: 82.02 ms</title></rect><rect x="668.0" y="235.2" width="14" height="54.8" fill="#b7410e" rx="1"><title>Rust regex_search: 2.35 ms</title></rect><rect x="684.0" y="170.1" width="14" height="119.9" fill="#00add8" rx="1"><title>Go regex_search: 99.51 ms</title></rect><rect x="700.0" y="185.3" width="14" height="104.7" fill="#5bc0de" rx="1"><title>Python regex_search: 41.51 ms</title></rect><text x="675.0" y="298.0" text-anchor="end" fill="#333" transform="rotate(-45 675.0,298.0)">regex_search</text><rect x="732.0" y="287" width="14" height="3" fill="#cccccc" rx="1"><title>Cangjie math_loop: missing</title></rect><rect x="748.0" y="172.5" width="14" height="117.5" fill="#5cb85c" rx="1"><title>C++ math_loop: 86.71 ms</title></rect><rect x="764.0" y="172.8" width="14" height="117.2" fill="#b7410e" rx="1"><title>Rust math_loop: 85.11 ms</title></rect><rect x="780.0" y="163.5" width="14" height="126.5" fill="#00add8" rx="1"><title>Go math_loop: 145.54 ms</title></rect><rect x="796.0" y="130.5" width="14" height="159.5" fill="#5bc0de" rx="1"><title>Python math_loop: 971.15 ms</title></rect><text x="771.0" y="298.0" text-anchor="end" fill="#333" transform="rotate(-45 771.0,298.0)">math_loop</text><rect x="828.0" y="287" width="14" height="3" fill="#cccccc" rx="1"><title>Cangjie prime_sieve: missing</title></rect><rect x="844.0" y="181.1" width="14" height="108.9" fill="#5cb85c" rx="1"><title>C++ prime_sieve: 52.66 ms</title></rect><rect x="860.0" y="178.4" width="14" height="111.6" fill="#b7410e" rx="1"><title>Rust prime_sieve: 61.73 ms</title></rect><rect x="876.0" y="180.9" width="14" height="109.1" fill="#00add8" rx="1"><title>Go prime_sieve: 53.33 ms</title></rect><rect x="892.0" y="112.0" width="14" height="178.0" fill="#5bc0de" rx="1"><title>Python prime_sieve: 2.821 s</title></rect><text x="867.0" y="298.0" text-anchor="end" fill="#333" transform="rotate(-45 867.0,298.0)">prime_sieve</text><rect x="924.0" y="287" width="14" height="3" fill="#cccccc" rx="1"><title>Cangjie quicksort: missing</title></rect><rect x="940.0" y="168.1" width="14" height="121.9" fill="#5cb85c" rx="1"><title>C++ quicksort: 111.32 ms</title></rect><rect x="956.0" y="167.4" width="14" height="122.6" fill="#b7410e" rx="1"><title>Rust quicksort: 115.97 ms</title></rect><rect x="972.0" y="166.7" width="14" height="123.3" fill="#00add8" rx="1"><title>Go quicksort: 120.86 ms</title></rect><rect x="988.0" y="105.4" width="14" height="184.6" fill="#5bc0de" rx="1"><title>Python quicksort: 4.124 s</title></rect><text x="963.0" y="298.0" text-anchor="end" fill="#333" transform="rotate(-45 963.0,298.0)">quicksort</text><rect x="1020.0" y="287" width="14" height="3" fill="#cccccc" rx="1"><title>Cangjie mandelbrot: missing</title></rect><rect x="1036.0" y="171.7" width="14" height="118.3" fill="#5cb85c" rx="1"><title>C++ mandelbrot: 90.71 ms</title></rect><rect x="1052.0" y="171.5" width="14" height="118.5" fill="#b7410e" rx="1"><title>Rust mandelbrot: 91.69 ms</title></rect><rect x="1068.0" y="171.6" width="14" height="118.4" fill="#00add8" rx="1"><title>Go mandelbrot: 91.30 ms</title></rect><rect x="1084.0" y="108.0" width="14" height="182.0" fill="#5bc0de" rx="1"><title>Python mandelbrot: 3.550 s</title></rect><text x="1059.0" y="298.0" text-anchor="end" fill="#333" transform="rotate(-45 1059.0,298.0)">mandelbrot</text><rect x="1116.0" y="287" width="14" height="3" fill="#cccccc" rx="1"><title>Cangjie nbody: missing</title></rect><rect x="1132.0" y="203.7" width="14" height="86.3" fill="#5cb85c" rx="1"><title>C++ nbody: 14.36 ms</title></rect><rect x="1148.0" y="210.9" width="14" height="79.1" fill="#b7410e" rx="1"><title>Rust nbody: 9.51 ms</title></rect><rect x="1164.0" y="203.0" width="14" height="87.0" fill="#00add8" rx="1"><title>Go nbody: 14.94 ms</title></rect><rect x="1180.0" y="127.0" width="14" height="163.0" fill="#5bc0de" rx="1"><title>Python nbody: 1.187 s</title></rect><text x="1155.0" y="298.0" text-anchor="end" fill="#333" transform="rotate(-45 1155.0,298.0)">nbody</text><rect x="1212.0" y="287" width="14" height="3" fill="#cccccc" rx="1"><title>Cangjie binary_trees: missing</title></rect><rect x="1228.0" y="177.0" width="14" height="113.0" fill="#5cb85c" rx="1"><title>C++ binary_trees: 67.01 ms</title></rect><rect x="1244.0" y="177.2" width="14" height="112.8" fill="#b7410e" rx="1"><title>Rust binary_trees: 65.89 ms</title></rect><rect x="1260.0" y="170.8" width="14" height="119.2" fill="#00add8" rx="1"><title>Go binary_trees: 95.61 ms</title></rect><rect x="1276.0" y="132.9" width="14" height="157.1" fill="#5bc0de" rx="1"><title>Python binary_trees: 847.34 ms</title></rect><text x="1251.0" y="298.0" text-anchor="end" fill="#333" transform="rotate(-45 1251.0,298.0)">binary_trees</text><rect x="1308.0" y="287" width="14" height="3" fill="#cccccc" rx="1"><title>Cangjie matrix_multiply: missing</title></rect><rect x="1324.0" y="209.7" width="14" height="80.3" fill="#5cb85c" rx="1"><title>C++ matrix_multiply: 10.16 ms</title></rect><rect x="1340.0" y="224.4" width="14" height="65.6" fill="#b7410e" rx="1"><title>Rust matrix_multiply: 4.36 ms</title></rect><rect x="1356.0" y="209.2" width="14" height="80.8" fill="#00add8" rx="1"><title>Go matrix_multiply: 10.47 ms</title></rect><rect x="1372.0" y="135.5" width="14" height="154.5" fill="#5bc0de" rx="1"><title>Python matrix_multiply: 730.34 ms</title></rect><text x="1347.0" y="298.0" text-anchor="end" fill="#333" transform="rotate(-45 1347.0,298.0)">matrix_multiply</text><rect x="1404.0" y="287" width="14" height="3" fill="#cccccc" rx="1"><title>Cangjie word_count: missing</title></rect><rect x="1420.0" y="192.5" width="14" height="97.5" fill="#5cb85c" rx="1"><title>C++ word_count: 27.35 ms</title></rect><rect x="1436.0" y="193.4" width="14" height="96.6" fill="#b7410e" rx="1"><title>Rust word_count: 26.07 ms</title></rect><rect x="1452.0" y="193.7" width="14" height="96.3" fill="#00add8" rx="1"><title>Go word_count: 25.59 ms</title></rect><rect x="1468.0" y="164.8" width="14" height="125.2" fill="#5bc0de" rx="1"><title>Python word_count: 134.58 ms</title></rect><text x="1443.0" y="298.0" text-anchor="end" fill="#333" transform="rotate(-45 1443.0,298.0)">word_count</text><rect x="1500.0" y="287" width="14" height="3" fill="#cccccc" rx="1"><title>Cangjie spectral_norm: missing</title></rect><rect x="1516.0" y="165.6" width="14" height="124.4" fill="#5cb85c" rx="1"><title>C++ spectral_norm: 128.87 ms</title></rect><rect x="1532.0" y="165.5" width="14" height="124.5" fill="#b7410e" rx="1"><title>Rust spectral_norm: 129.71 ms</title></rect><rect x="1548.0" y="165.5" width="14" height="124.5" fill="#00add8" rx="1"><title>Go spectral_norm: 129.55 ms</title></rect><rect x="1564.0" y="82.6" width="14" height="207.4" fill="#5bc0de" rx="1"><title>Python spectral_norm: 15.334 s</title></rect><text x="1539.0" y="298.0" text-anchor="end" fill="#333" transform="rotate(-45 1539.0,298.0)">spectral_norm</text><rect x="1596.0" y="287" width="14" height="3" fill="#cccccc" rx="1"><title>Cangjie bit_count: missing</title></rect><rect x="1612.0" y="163.1" width="14" height="126.9" fill="#5cb85c" rx="1"><title>C++ bit_count: 149.18 ms</title></rect><rect x="1628.0" y="161.5" width="14" height="128.5" fill="#b7410e" rx="1"><title>Rust bit_count: 163.08 ms</title></rect><rect x="1644.0" y="161.4" width="14" height="128.6" fill="#00add8" rx="1"><title>Go bit_count: 163.67 ms</title></rect><rect x="1660.0" y="87.6" width="14" height="202.4" fill="#5bc0de" rx="1"><title>Python bit_count: 11.498 s</title></rect><text x="1635.0" y="298.0" text-anchor="end" fill="#333" transform="rotate(-45 1635.0,298.0)">bit_count</text><rect x="1692.0" y="287" width="14" height="3" fill="#cccccc" rx="1"><title>Cangjie gcd_loop: missing</title></rect><rect x="1708.0" y="180.2" width="14" height="109.8" fill="#5cb85c" rx="1"><title>C++ gcd_loop: 55.55 ms</title></rect><rect x="1724.0" y="181.8" width="14" height="108.2" fill="#b7410e" rx="1"><title>Rust gcd_loop: 50.73 ms</title></rect><rect x="1740.0" y="180.3" width="14" height="109.7" fill="#00add8" rx="1"><title>Go gcd_loop: 55.15 ms</title></rect><rect x="1756.0" y="137.9" width="14" height="152.1" fill="#5bc0de" rx="1"><title>Python gcd_loop: 636.18 ms</title></rect><text x="1731.0" y="298.0" text-anchor="end" fill="#333" transform="rotate(-45 1731.0,298.0)">gcd_loop</text><rect x="1788.0" y="287" width="14" height="3" fill="#cccccc" rx="1"><title>Cangjie xor_shift: missing</title></rect><rect x="1804.0" y="171.2" width="14" height="118.8" fill="#5cb85c" rx="1"><title>C++ xor_shift: 93.50 ms</title></rect><rect x="1820.0" y="171.1" width="14" height="118.9" fill="#b7410e" rx="1"><title>Rust xor_shift: 93.64 ms</title></rect><rect x="1836.0" y="171.1" width="14" height="118.9" fill="#00add8" rx="1"><title>Go xor_shift: 93.83 ms</title></rect><rect x="1852.0" y="81.9" width="14" height="208.1" fill="#5bc0de" rx="1"><title>Python xor_shift: 15.958 s</title></rect><text x="1827.0" y="298.0" text-anchor="end" fill="#333" transform="rotate(-45 1827.0,298.0)">xor_shift</text><rect x="1884.0" y="287" width="14" height="3" fill="#cccccc" rx="1"><title>Cangjie string_split: missing</title></rect><rect x="1900.0" y="195.4" width="14" height="94.6" fill="#5cb85c" rx="1"><title>C++ string_split: 23.22 ms</title></rect><rect x="1916.0" y="198.4" width="14" height="91.6" fill="#b7410e" rx="1"><title>Rust string_split: 19.52 ms</title></rect><rect x="1932.0" y="202.8" width="14" height="87.2" fill="#00add8" rx="1"><title>Go string_split: 15.13 ms</title></rect><rect x="1948.0" y="190.0" width="14" height="100.0" fill="#5bc0de" rx="1"><title>Python string_split: 31.59 ms</title></rect><text x="1923.0" y="298.0" text-anchor="end" fill="#333" transform="rotate(-45 1923.0,298.0)">string_split</text><rect x="1980.0" y="287" width="14" height="3" fill="#cccccc" rx="1"><title>Cangjie string_search: missing</title></rect><rect x="1996.0" y="145.7" width="14" height="144.3" fill="#5cb85c" rx="1"><title>C++ string_search: 406.05 ms</title></rect><rect x="2012.0" y="153.7" width="14" height="136.3" fill="#b7410e" rx="1"><title>Rust string_search: 255.36 ms</title></rect><rect x="2028.0" y="136.8" width="14" height="153.2" fill="#00add8" rx="1"><title>Go string_search: 677.97 ms</title></rect><rect x="2044.0" y="165.7" width="14" height="124.3" fill="#5bc0de" rx="1"><title>Python string_search: 128.29 ms</title></rect><text x="2019.0" y="298.0" text-anchor="end" fill="#333" transform="rotate(-45 2019.0,298.0)">string_search</text><rect x="2076.0" y="287" width="14" height="3" fill="#cccccc" rx="1"><title>Cangjie format_loop: missing</title></rect><rect x="2092.0" y="188.3" width="14" height="101.7" fill="#5cb85c" rx="1"><title>C++ format_loop: 34.86 ms</title></rect><rect x="2108.0" y="198.9" width="14" height="91.1" fill="#b7410e" rx="1"><title>Rust format_loop: 18.92 ms</title></rect><rect x="2124.0" y="181.2" width="14" height="108.8" fill="#00add8" rx="1"><title>Go format_loop: 52.56 ms</title></rect><rect x="2140.0" y="165.8" width="14" height="124.2" fill="#5bc0de" rx="1"><title>Python format_loop: 127.44 ms</title></rect><text x="2115.0" y="298.0" text-anchor="end" fill="#333" transform="rotate(-45 2115.0,298.0)">format_loop</text><rect x="2172.0" y="287" width="14" height="3" fill="#cccccc" rx="1"><title>Cangjie set_ops: missing</title></rect><rect x="2188.0" y="185.9" width="14" height="104.1" fill="#5cb85c" rx="1"><title>C++ set_ops: 40.05 ms</title></rect><rect x="2204.0" y="190.5" width="14" height="99.5" fill="#b7410e" rx="1"><title>Rust set_ops: 30.81 ms</title></rect><rect x="2220.0" y="183.9" width="14" height="106.1" fill="#00add8" rx="1"><title>Go set_ops: 44.83 ms</title></rect><rect x="2236.0" y="153.0" width="14" height="137.0" fill="#5bc0de" rx="1"><title>Python set_ops: 266.45 ms</title></rect><text x="2211.0" y="298.0" text-anchor="end" fill="#333" transform="rotate(-45 2211.0,298.0)">set_ops</text><rect x="2268.0" y="287" width="14" height="3" fill="#cccccc" rx="1"><title>Cangjie deque_ops: missing</title></rect><rect x="2284.0" y="210.2" width="14" height="79.8" fill="#5cb85c" rx="1"><title>C++ deque_ops: 9.90 ms</title></rect><rect x="2300.0" y="217.1" width="14" height="72.9" fill="#b7410e" rx="1"><title>Rust deque_ops: 6.64 ms</title></rect><rect x="2316.0" y="202.3" width="14" height="87.7" fill="#00add8" rx="1"><title>Go deque_ops: 15.55 ms</title></rect><rect x="2332.0" y="147.4" width="14" height="142.6" fill="#5bc0de" rx="1"><title>Python deque_ops: 367.53 ms</title></rect><text x="2307.0" y="298.0" text-anchor="end" fill="#333" transform="rotate(-45 2307.0,298.0)">deque_ops</text><rect x="2364.0" y="287" width="14" height="3" fill="#cccccc" rx="1"><title>Cangjie conway: missing</title></rect><rect x="2380.0" y="188.4" width="14" height="101.6" fill="#5cb85c" rx="1"><title>C++ conway: 34.63 ms</title></rect><rect x="2396.0" y="195.2" width="14" height="94.8" fill="#b7410e" rx="1"><title>Rust conway: 23.47 ms</title></rect><rect x="2412.0" y="178.1" width="14" height="111.9" fill="#00add8" rx="1"><title>Go conway: 62.87 ms</title></rect><rect x="2428.0" y="109.5" width="14" height="180.5" fill="#5bc0de" rx="1"><title>Python conway: 3.249 s</title></rect><text x="2403.0" y="298.0" text-anchor="end" fill="#333" transform="rotate(-45 2403.0,298.0)">conway</text><rect x="2460.0" y="287" width="14" height="3" fill="#cccccc" rx="1"><title>Cangjie knapsack_dp: missing</title></rect><rect x="2476.0" y="226.6" width="14" height="63.4" fill="#5cb85c" rx="1"><title>C++ knapsack_dp: 3.85 ms</title></rect><rect x="2492.0" y="224.7" width="14" height="65.3" fill="#b7410e" rx="1"><title>Rust knapsack_dp: 4.28 ms</title></rect><rect x="2508.0" y="225.5" width="14" height="64.5" fill="#00add8" rx="1"><title>Go knapsack_dp: 4.10 ms</title></rect><rect x="2524.0" y="145.6" width="14" height="144.4" fill="#5bc0de" rx="1"><title>Python knapsack_dp: 408.51 ms</title></rect><text x="2499.0" y="298.0" text-anchor="end" fill="#333" transform="rotate(-45 2499.0,298.0)">knapsack_dp</text><rect x="2556.0" y="287" width="14" height="3" fill="#cccccc" rx="1"><title>Cangjie levenshtein: missing</title></rect><rect x="2572.0" y="232.9" width="14" height="57.1" fill="#5cb85c" rx="1"><title>C++ levenshtein: 2.67 ms</title></rect><rect x="2588.0" y="216.5" width="14" height="73.5" fill="#b7410e" rx="1"><title>Rust levenshtein: 6.86 ms</title></rect><rect x="2604.0" y="226.3" width="14" height="63.7" fill="#00add8" rx="1"><title>Go levenshtein: 3.92 ms</title></rect><rect x="2620.0" y="144.0" width="14" height="146.0" fill="#5bc0de" rx="1"><title>Python levenshtein: 446.40 ms</title></rect><text x="2595.0" y="298.0" text-anchor="end" fill="#333" transform="rotate(-45 2595.0,298.0)">levenshtein</text><rect x="2652.0" y="287" width="14" height="3" fill="#cccccc" rx="1"><title>Cangjie monte_carlo_pi: missing</title></rect><rect x="2668.0" y="199.1" width="14" height="90.9" fill="#5cb85c" rx="1"><title>C++ monte_carlo_pi: 18.70 ms</title></rect><rect x="2684.0" y="205.8" width="14" height="84.2" fill="#b7410e" rx="1"><title>Rust monte_carlo_pi: 12.75 ms</title></rect><rect x="2700.0" y="199.3" width="14" height="90.7" fill="#00add8" rx="1"><title>Go monte_carlo_pi: 18.48 ms</title></rect><rect x="2716.0" y="119.9" width="14" height="170.1" fill="#5bc0de" rx="1"><title>Python monte_carlo_pi: 1.789 s</title></rect><text x="2691.0" y="298.0" text-anchor="end" fill="#333" transform="rotate(-45 2691.0,298.0)">monte_carlo_pi</text><rect x="2748.0" y="287" width="14" height="3" fill="#cccccc" rx="1"><title>Cangjie histogram: missing</title></rect><rect x="2764.0" y="211.0" width="14" height="79.0" fill="#5cb85c" rx="1"><title>C++ histogram: 9.43 ms</title></rect><rect x="2780.0" y="216.1" width="14" height="73.9" fill="#b7410e" rx="1"><title>Rust histogram: 7.05 ms</title></rect><rect x="2796.0" y="213.9" width="14" height="76.1" fill="#00add8" rx="1"><title>Go histogram: 8.00 ms</title></rect><rect x="2812.0" y="128.5" width="14" height="161.5" fill="#5bc0de" rx="1"><title>Python histogram: 1.088 s</title></rect><text x="2787.0" y="298.0" text-anchor="end" fill="#333" transform="rotate(-45 2787.0,298.0)">histogram</text><rect x="2844.0" y="287" width="14" height="3" fill="#cccccc" rx="1"><title>Cangjie dijkstra: missing</title></rect><rect x="2860.0" y="247.7" width="14" height="42.3" fill="#5cb85c" rx="1"><title>C++ dijkstra: 1.14 ms</title></rect><rect x="2876.0" y="256.0" width="14" height="34.0" fill="#b7410e" rx="1"><title>Rust dijkstra: 709.22 µs</title></rect><rect x="2892.0" y="248.6" width="14" height="41.4" fill="#00add8" rx="1"><title>Go dijkstra: 1.09 ms</title></rect><rect x="2908.0" y="183.8" width="14" height="106.2" fill="#5bc0de" rx="1"><title>Python dijkstra: 45.18 ms</title></rect><text x="2883.0" y="298.0" text-anchor="end" fill="#333" transform="rotate(-45 2883.0,298.0)">dijkstra</text><rect x="2940.0" y="287" width="14" height="3" fill="#cccccc" rx="1"><title>Cangjie base64: missing</title></rect><rect x="2956.0" y="231.7" width="14" height="58.3" fill="#5cb85c" rx="1"><title>C++ base64: 2.87 ms</title></rect><rect x="2972.0" y="231.4" width="14" height="58.6" fill="#b7410e" rx="1"><title>Rust base64: 2.92 ms</title></rect><rect x="2988.0" y="226.8" width="14" height="63.2" fill="#00add8" rx="1"><title>Go base64: 3.79 ms</title></rect><rect x="3004.0" y="148.9" width="14" height="141.1" fill="#5bc0de" rx="1"><title>Python base64: 336.11 ms</title></rect><text x="2979.0" y="298.0" text-anchor="end" fill="#333" transform="rotate(-45 2979.0,298.0)">base64</text><rect x="3036.0" y="287" width="14" height="3" fill="#cccccc" rx="1"><title>Cangjie crc32: missing</title></rect><rect x="3052.0" y="206.1" width="14" height="83.9" fill="#5cb85c" rx="1"><title>C++ crc32: 12.50 ms</title></rect><rect x="3068.0" y="206.0" width="14" height="84.0" fill="#b7410e" rx="1"><title>Rust crc32: 12.58 ms</title></rect><rect x="3084.0" y="206.1" width="14" height="83.9" fill="#00add8" rx="1"><title>Go crc32: 12.50 ms</title></rect><rect x="3100.0" y="137.6" width="14" height="152.4" fill="#5bc0de" rx="1"><title>Python crc32: 645.18 ms</title></rect><text x="3075.0" y="298.0" text-anchor="end" fill="#333" transform="rotate(-45 3075.0,298.0)">crc32</text></svg>