<?xml version="1.0" encoding="UTF-8"?>
<svg xmlns="http://www.w3.org/2000/svg" viewBox="0 0 1598 360" width="1598" height="360" role="img" aria-label="Benchmark timings (log scale)" font-family="-apple-system,Segoe UI,Helvetica,Arial,sans-serif" font-size="11"><rect x="0" y="0" width="1598" height="360" fill="#ffffff"/><text x="799.0" y="22" text-anchor="middle" font-size="14" font-weight="600" fill="#222">Benchmark wall-clock time per implementation (min of 5 runs, log scale, lower is better)</text><rect x="60" y="27" width="12" height="12" fill="#d9534f" rx="2"/><text x="78" y="37" fill="#333">Cangjie</text><rect x="170" y="27" width="12" height="12" fill="#5cb85c" rx="2"/><text x="188" y="37" fill="#333">C++</text><rect x="280" y="27" width="12" height="12" fill="#b7410e" rx="2"/><text x="298" y="37" fill="#333">Rust</text><rect x="390" y="27" width="12" height="12" fill="#00add8" rx="2"/><text x="408" y="37" fill="#333">Go</text><rect x="500" y="27" width="12" height="12" fill="#5bc0de" rx="2"/><text x="518" y="37" fill="#333">Python</text><line x1="60" y1="290.0" x2="1578" y2="290.0" stroke="#e5e5e5" stroke-width="1"/><text x="54" y="293.0" text-anchor="end" fill="#555">1 ms</text><line x1="60" y1="242.0" x2="1578" y2="242.0" stroke="#e5e5e5" stroke-width="1"/><text x="54" y="245.0" text-anchor="end" fill="#555">10 ms</text><line x1="60" y1="194.0" x2="1578" y2="194.0" stroke="#e5e5e5" stroke-width="1"/><text x="54" y="197.0" text-anchor="end" fill="#555">100 ms</text><line x1="60" y1="146.0" x2="1578" y2="146.0" stroke="#e5e5e5" stroke-width="1"/><text x="54" y="149.0" text-anchor="end" fill="#555">1 s</text><line x1="60" y1="98.0" x2="1578" y2="98.0" stroke="#e5e5e5" stroke-width="1"/><text x="54" y="101.0" text-anchor="end" fill="#555">10 s</text><line x1="60" y1="50.0" x2="1578" y2="50.0" stroke="#e5e5e5" stroke-width="1"/><text x="54" y="53.0" text-anchor="end" fill="#555">100 s</text><line x1="60" y1="50" x2="60" y2="290" stroke="#888" stroke-width="1"/><line x1="60" y1="290" x2="1578" y2="290" stroke="#888" stroke-width="1"/><rect x="60.0" y="224.1" width="14" height="65.9" fill="#d9534f" rx="1"><title>Cangjie fibonacci: 23.63 ms</title></rect><rect x="76.0" y="261.6" width="14" height="28.4" fill="#5cb85c" rx="1"><title>C++ fibonacci: 3.90 ms</title></rect><rect x="92.0" y="250.5" width="14" height="39.5" fill="#b7410e" rx="1"><title>Rust fibonacci: 6.64 ms</title></rect><rect x="108.0" y="239.1" width="14" height="50.9" fill="#00add8" rx="1"><title>Go fibonacci: 11.47 ms</title></rect><rect x="124.0" y="170.5" width="14" height="119.5" fill="#5bc0de" rx="1"><title>Python fibonacci: 309.29 ms</title></rect><text x="99.0" y="298.0" text-anchor="end" fill="#333" transform="rotate(-45 99.0,298.0)">fibonacci</text><rect x="156.0" y="130.0" width="14" height="160.0" fill="#d9534f" rx="1"><title>Cangjie sort: 2.158 s</title></rect><rect x="172.0" y="187.9" width="14" height="102.1" fill="#5cb85c" rx="1"><title>C++ sort: 133.76 ms</title></rect><rect x="188.0" y="206.1" width="14" height="83.9" fill="#b7410e" rx="1"><title>Rust sort: 55.96 ms</title></rect><rect x="204.0" y="171.2" width="14" height="118.8" fill="#00add8" rx="1"><title>Go sort: 298.31 ms</title></rect><rect x="220.0" y="150.6" width="14" height="139.4" fill="#5bc0de" rx="1"><title>Python sort: 801.96 ms</title></rect><text x="195.0" y="298.0" text-anchor="end" fill="#333" transform="rotate(-45 195.0,298.0)">sort</text><rect x="252.0" y="160.7" width="14" height="129.3" fill="#d9534f" rx="1"><title>Cangjie hashmap_ops: 492.91 ms</title></rect><rect x="268.0" y="192.1" width="14" height="97.9" fill="#5cb85c" rx="1"><title>C++ hashmap_ops: 109.44 ms</title></rect><rect x="284.0" y="188.3" width="14" height="101.7" fill="#b7410e" rx="1"><title>Rust hashmap_ops: 131.37 ms</title></rect><rect x="300.0" y="203.2" width="14" height="86.8" fill="#00add8" rx="1"><title>Go hashmap_ops: 64.23 ms</title></rect><rect x="316.0" y="190.1" width="14" height="99.9" fill="#5bc0de" rx="1"><title>Python hashmap_ops: 120.75 ms</title></rect><text x="291.0" y="298.0" text-anchor="end" fill="#333" transform="rotate(-45 291.0,298.0)">hashmap_ops</text><rect x="348.0" y="209.6" width="14" height="80.4" fill="#d9534f" rx="1"><title>Cangjie string_concat: 47.31 ms</title></rect><rect x="364.0" y="217.6" width="14" height="72.4" fill="#5cb85c" rx="1"><title>C++ string_concat: 32.26 ms</title></rect><rect x="380.0" y="237.4" width="14" height="52.6" fill="#b7410e" rx="1"><title>Rust string_concat: 12.47 ms</title></rect><rect x="396.0" y="232.5" width="14" height="57.5" fill="#00add8" rx="1"><title>Go string_concat: 15.76 ms</title></rect><rect x="412.0" y="201.1" width="14" height="88.9" fill="#5bc0de" rx="1"><title>Python string_concat: 71.24 ms</title></rect><text x="387.0" y="298.0" text-anchor="end" fill="#333" transform="rotate(-45 387.0,298.0)">string_concat</text><rect x="444.0" y="193.7" width="14" height="96.3" fill="#d9534f" rx="1"><title>Cangjie closure_sum: 101.57 ms</title></rect><rect x="460.0" y="243.8" width="14" height="46.2" fill="#5cb85c" rx="1"><title>C++ closure_sum: 9.17 ms</title></rect><rect x="476.0" y="281.2" width="14" height="8.8" fill="#b7410e" rx="1"><title>Rust closure_sum: 1.52 ms</title></rect><rect x="492.0" y="267.8" width="14" height="22.2" fill="#00add8" rx="1"><title>Go closure_sum: 2.90 ms</title></rect><rect x="508.0" y="167.4" width="14" height="122.6" fill="#5bc0de" rx="1"><title>Python closure_sum: 357.59 ms</title></rect><text x="483.0" y="298.0" text-anchor="end" fill="#333" transform="rotate(-45 483.0,298.0)">closure_sum</text><rect x="540.0" y="159.2" width="14" height="130.8" fill="#d9534f" rx="1"><title>Cangjie enum_eval: 531.60 ms</title></rect><rect x="556.0" y="188.5" width="14" height="101.5" fill="#5cb85c" rx="1"><title>C++ enum_eval: 130.29 ms</title></rect><rect x="572.0" y="179.7" width="14" height="110.3" fill="#b7410e" rx="1"><title>Rust enum_eval: 198.80 ms</title></rect><rect x="588.0" y="182.4" width="14" height="107.6" fill="#00add8" rx="1"><title>Go enum_eval: 174.37 ms</title></rect><rect x="604.0" y="111.9" width="14" height="178.1" fill="#5bc0de" rx="1"><title>Python enum_eval: 5.140 s</title></rect><text x="579.0" y="298.0" text-anchor="end" fill="#333" transform="rotate(-45 579.0,298.0)">enum_eval</text><rect x="636.0" y="210.3" width="14" height="79.7" fill="#d9534f" rx="1"><title>Cangjie regex_search: 45.81 ms</title></rect><rect x="652.0" y="199.2" width="14" height="90.8" fill="#5cb85c" rx="1"><title>C++ regex_search: 78.07 ms</title></rect><rect x="668.0" y="275.4" width="14" height="14.6" fill="#b7410e" rx="1"><title>Rust regex_search: 2.02 ms</title></rect><rect x="684.0" y="193.7" width="14" height="96.3" fill="#00add8" rx="1"><title>Go regex_search: 101.69 ms</title></rect><rect x="700.0" y="212.1" width="14" height="77.9" fill="#5bc0de" rx="1"><title>Python regex_search: 41.94 ms</title></rect><text x="675.0" y="298.0" text-anchor="end" fill="#333" transform="rotate(-45 675.0,298.0)">regex_search</text><rect x="732.0" y="186.9" width="14" height="103.1" fill="#d9534f" rx="1"><title>Cangjie math_loop: 140.81 ms</title></rect><rect x="748.0" y="197.0" width="14" height="93.0" fill="#5cb85c" rx="1"><title>C++ math_loop: 86.69 ms</title></rect><rect x="764.0" y="197.5" width="14" height="92.5" fill="#b7410e" rx="1"><title>Rust math_loop: 84.63 ms</title></rect><rect x="780.0" y="186.3" width="14" height="103.7" fill="#00add8" rx="1"><title>Go math_loop: 144.37 ms</title></rect><rect x="796.0" y="147.8" width="14" height="142.2" fill="#5bc0de" rx="1"><title>Python math_loop: 916.48 ms</title></rect><text x="771.0" y="298.0" text-anchor="end" fill="#333" transform="rotate(-45 771.0,298.0)">math_loop</text><rect x="828.0" y="136.5" width="14" height="153.5" fill="#d9534f" rx="1"><title>Cangjie prime_sieve: 1.579 s</title></rect><rect x="844.0" y="206.4" width="14" height="83.6" fill="#5cb85c" rx="1"><title>C++ prime_sieve: 55.06 ms</title></rect><rect x="860.0" y="202.4" width="14" height="87.6" fill="#b7410e" rx="1"><title>Rust prime_sieve: 66.69 ms</title></rect><rect x="876.0" y="205.4" width="14" height="84.6" fill="#00add8" rx="1"><title>Go prime_sieve: 57.88 ms</title></rect><rect x="892.0" y="124.4" width="14" height="165.6" fill="#5bc0de" rx="1"><title>Python prime_sieve: 2.817 s</title></rect><text x="867.0" y="298.0" text-anchor="end" fill="#333" transform="rotate(-45 867.0,298.0)">prime_sieve</text><rect x="924.0" y="129.4" width="14" height="160.6" fill="#d9534f" rx="1"><title>Cangjie quicksort: 2.216 s</title></rect><rect x="940.0" y="191.7" width="14" height="98.3" fill="#5cb85c" rx="1"><title>C++ quicksort: 111.67 ms</title></rect><rect x="956.0" y="190.9" width="14" height="99.1" fill="#b7410e" rx="1"><title>Rust quicksort: 115.89 ms</title></rect><rect x="972.0" y="190.1" width="14" height="99.9" fill="#00add8" rx="1"><title>Go quicksort: 120.85 ms</title></rect><rect x="988.0" y="117.5" width="14" height="172.5" fill="#5bc0de" rx="1"><title>Python quicksort: 3.929 s</title></rect><text x="963.0" y="298.0" text-anchor="end" fill="#333" transform="rotate(-45 963.0,298.0)">quicksort</text><rect x="1020.0" y="174.8" width="14" height="115.2" fill="#d9534f" rx="1"><title>Cangjie mandelbrot: 251.79 ms</title></rect><rect x="1036.0" y="196.0" width="14" height="94.0" fill="#5cb85c" rx="1"><title>C++ mandelbrot: 90.73 ms</title></rect><rect x="1052.0" y="195.8" width="14" height="94.2" fill="#b7410e" rx="1"><title>Rust mandelbrot: 91.72 ms</title></rect><rect x="1068.0" y="195.9" width="14" height="94.1" fill="#00add8" rx="1"><title>Go mandelbrot: 91.09 ms</title></rect><rect x="1084.0" y="120.2" width="14" height="169.8" fill="#5bc0de" rx="1"><title>Python mandelbrot: 3.448 s</title></rect><text x="1059.0" y="298.0" text-anchor="end" fill="#333" transform="rotate(-45 1059.0,298.0)">mandelbrot</text><rect x="1116.0" y="198.9" width="14" height="91.1" fill="#d9534f" rx="1"><title>Cangjie nbody: 78.86 ms</title></rect><rect x="1132.0" y="235.0" width="14" height="55.0" fill="#5cb85c" rx="1"><title>C++ nbody: 14.01 ms</title></rect><rect x="1148.0" y="243.7" width="14" height="46.3" fill="#b7410e" rx="1"><title>Rust nbody: 9.20 ms</title></rect><rect x="1164.0" y="233.6" width="14" height="56.4" fill="#00add8" rx="1"><title>Go nbody: 14.98 ms</title></rect><rect x="1180.0" y="142.9" width="14" height="147.1" fill="#5bc0de" rx="1"><title>Python nbody: 1.159 s</title></rect><text x="1155.0" y="298.0" text-anchor="end" fill="#333" transform="rotate(-45 1155.0,298.0)">nbody</text><rect x="1212.0" y="191.3" width="14" height="98.7" fill="#d9534f" rx="1"><title>Cangjie binary_trees: 113.74 ms</title></rect><rect x="1228.0" y="202.2" width="14" height="87.8" fill="#5cb85c" rx="1"><title>C++ binary_trees: 67.41 ms</title></rect><rect x="1244.0" y="202.8" width="14" height="87.2" fill="#b7410e" rx="1"><title>Rust binary_trees: 65.45 ms</title></rect><rect x="1260.0" y="195.4" width="14" height="94.6" fill="#00add8" rx="1"><title>Go binary_trees: 93.30 ms</title></rect><rect x="1276.0" y="149.6" width="14" height="140.4" fill="#5bc0de" rx="1"><title>Python binary_trees: 840.32 ms</title></rect><text x="1251.0" y="298.0" text-anchor="end" fill="#333" transform="rotate(-45 1251.0,298.0)">binary_trees</text><rect x="1308.0" y="148.5" width="14" height="141.5" fill="#d9534f" rx="1"><title>Cangjie matrix_multiply: 885.98 ms</title></rect><rect x="1324.0" y="241.6" width="14" height="48.4" fill="#5cb85c" rx="1"><title>C++ matrix_multiply: 10.17 ms</title></rect><rect x="1340.0" y="262.6" width="14" height="27.4" fill="#b7410e" rx="1"><title>Rust matrix_multiply: 3.72 ms</title></rect><rect x="1356.0" y="239.4" width="14" height="50.6" fill="#00add8" rx="1"><title>Go matrix_multiply: 11.33 ms</title></rect><rect x="1372.0" y="152.7" width="14" height="137.3" fill="#5bc0de" rx="1"><title>Python matrix_multiply: 724.56 ms</title></rect><text x="1347.0" y="298.0" text-anchor="end" fill="#333" transform="rotate(-45 1347.0,298.0)">matrix_multiply</text><rect x="1404.0" y="152.7" width="14" height="137.3" fill="#d9534f" rx="1"><title>Cangjie word_count: 724.74 ms</title></rect><rect x="1420.0" y="221.0" width="14" height="69.0" fill="#5cb85c" rx="1"><title>C++ word_count: 27.35 ms</title></rect><rect x="1436.0" y="222.0" width="14" height="68.0" fill="#b7410e" rx="1"><title>Rust word_count: 26.07 ms</title></rect><rect x="1452.0" y="222.7" width="14" height="67.3" fill="#00add8" rx="1"><title>Go word_count: 25.24 ms</title></rect><rect x="1468.0" y="187.7" width="14" height="102.3" fill="#5bc0de" rx="1"><title>Python word_count: 135.59 ms</title></rect><text x="1443.0" y="298.0" text-anchor="end" fill="#333" transform="rotate(-45 1443.0,298.0)">word_count</text><rect x="1500.0" y="129.2" width="14" height="160.8" fill="#d9534f" rx="1"><title>Cangjie spectral_norm: 2.241 s</title></rect><rect x="1516.0" y="188.7" width="14" height="101.3" fill="#5cb85c" rx="1"><title>C++ spectral_norm: 128.68 ms</title></rect><rect x="1532.0" y="188.6" width="14" height="101.4" fill="#b7410e" rx="1"><title>Rust spectral_norm: 129.36 ms</title></rect><rect x="1548.0" y="188.6" width="14" height="101.4" fill="#00add8" rx="1"><title>Go spectral_norm: 129.58 ms</title></rect><rect x="1564.0" y="89.0" width="14" height="201.0" fill="#5bc0de" rx="1"><title>Python spectral_norm: 15.385 s</title></rect><text x="1539.0" y="298.0" text-anchor="end" fill="#333" transform="rotate(-45 1539.0,298.0)">spectral_norm</text></svg>